HIERARCHY
ROOT Hips
{
	OFFSET -0.001795 -0.223333 0.028219
	CHANNELS 6 Xposition Yposition Zposition Zrotation Yrotation Xrotation 
	JOINT LeftUpLeg
	{
		OFFSET 0.069520 -0.091406 -0.006815
		CHANNELS 3 Zrotation Yrotation Xrotation
		JOINT LeftLeg
		{
			OFFSET 0.034277 -0.375199 -0.004496
			CHANNELS 3 Zrotation Yrotation Xrotation
			JOINT LeftFoot
			{
				OFFSET -0.013596 -0.397961 -0.043693
				CHANNELS 3 Zrotation Yrotation Xrotation
				JOINT LeftToe
				{
					OFFSET 0.026358 -0.055791 0.119288
					CHANNELS 3 Zrotation Yrotation Xrotation
					End Site
					{
						OFFSET 0.000000 0.000000 0.000000
					}
				}
			}
		}
	}
	JOINT RightUpLeg
	{
		OFFSET -0.067670 -0.090522 -0.004320
		CHANNELS 3 Zrotation Yrotation Xrotation
		JOINT RightLeg
		{
			OFFSET -0.038290 -0.382569 -0.008850
			CHANNELS 3 Zrotation Yrotation Xrotation
			JOINT RightFoot
			{
				OFFSET 0.015774 -0.398415 -0.042312
				CHANNELS 3 Zrotation Yrotation Xrotation
				JOINT RightToe
				{
					OFFSET -0.025372 -0.048144 0.123348
					CHANNELS 3 Zrotation Yrotation Xrotation
					End Site
					{
						OFFSET 0.000000 0.000000 0.000000
					}
				}
			}
		}
	}
	JOINT Spine
	{
		OFFSET -0.002533 0.108963 -0.026696
		CHANNELS 3 Zrotation Yrotation Xrotation
		JOINT Spine1
		{
			OFFSET 0.005487 0.135180 0.001092
			CHANNELS 3 Zrotation Yrotation Xrotation
			JOINT Spine2
			{
				OFFSET 0.001457 0.052922 0.025425
				CHANNELS 3 Zrotation Yrotation Xrotation
				JOINT Neck
				{
					OFFSET -0.002778 0.213870 -0.042857
					CHANNELS 3 Zrotation Yrotation Xrotation
					JOINT Head
					{
						OFFSET 0.005152 0.064970 0.051349
						CHANNELS 3 Zrotation Yrotation Xrotation
						End Site
						{
							OFFSET 0.000000 0.000000 0.000000
						}
					}
				}
				JOINT LeftShoulder
				{
					OFFSET 0.078845 0.121749 -0.034090
					CHANNELS 3 Zrotation Yrotation Xrotation
					JOINT LeftArm
					{
						OFFSET 0.090977 0.030469 -0.008868
						CHANNELS 3 Zrotation Yrotation Xrotation
						JOINT LeftForeArm
						{
							OFFSET 0.259612 -0.012772 -0.027456
							CHANNELS 3 Zrotation Yrotation Xrotation
							JOINT LeftHand
							{
								OFFSET 0.249234 0.008986 -0.001171
								CHANNELS 3 Zrotation Yrotation Xrotation
								End Site
								{
									OFFSET 0.000000 0.000000 0.000000
								}
							}
						}
					}
				}
				JOINT RightShoulder
				{
					OFFSET -0.081759 0.118833 -0.038615
					CHANNELS 3 Zrotation Yrotation Xrotation
					JOINT RightArm
					{
						OFFSET -0.096012 0.032551 -0.009143
						CHANNELS 3 Zrotation Yrotation Xrotation
						JOINT RightForeArm
						{
							OFFSET -0.253742 -0.013329 -0.021401
							CHANNELS 3 Zrotation Yrotation Xrotation
							JOINT RightHand
							{
								OFFSET -0.255298 0.007772 -0.005559
								CHANNELS 3 Zrotation Yrotation Xrotation
								End Site
								{
									OFFSET 0.000000 0.000000 0.000000
								}
							}
						}
					}
				}
			}
		}
	}
}
MOTION
Frames: 16
Frame Time: 0.050000
-0.225054 0.859246 -0.185755 2.411374 -8.593997 20.914134 19.502640 5.823300 -49.288259 -13.145468 5.752737 33.635516 10.599952 20.815506 15.602946 0.000000 0.000000 0.000000 -21.461826 -1.427750 -57.991511 14.547796 -4.691255 40.228304 -4.928347 -14.796327 5.675326 0.000000 0.000000 0.000000 10.563625 -6.627570 59.963529 -3.445976 1.182066 -29.938983 -6.284884 4.458557 26.506831 17.221854 -3.537374 -42.451172 0.000000 0.000000 0.000000 15.228750 -34.115137 8.275205 -51.682989 -51.375343 16.667557 32.020390 -56.142779 -13.648263 0.000000 0.000000 0.000000 0.057974 20.609942 7.933549 62.398995 57.999187 27.407372 0.582785 53.682084 3.906527 0.000000 0.000000 0.000000 
-0.247534 0.858939 -0.189776 2.285831 -8.723393 21.254334 20.818605 6.361690 -48.717663 -12.849205 5.510059 32.690100 10.441685 20.455486 17.602893 0.000000 0.000000 0.000000 -20.586708 -1.010668 -58.760080 15.799973 -5.287504 40.495005 -5.089976 -15.174118 5.548711 0.000000 0.000000 0.000000 10.394913 -6.506752 60.333061 -3.323773 1.165304 -30.560466 -6.774698 4.167632 26.285362 17.628131 -3.612259 -42.740750 0.000000 0.000000 0.000000 15.131721 -33.346895 8.153853 -54.335105 -49.586564 16.933609 27.806432 -57.634576 -11.647212 0.000000 0.000000 0.000000 0.102693 20.139127 7.760116 65.223461 57.670012 28.858366 0.650292 53.638350 3.946808 0.000000 0.000000 0.000000 
-0.270154 0.860678 -0.193248 2.213745 -8.511745 21.548118 21.592575 6.464398 -47.816158 -12.092024 4.863683 30.574048 10.560935 20.503993 20.000136 0.000000 0.000000 0.000000 -19.445903 -0.549886 -58.530369 16.212478 -5.421581 40.012861 -5.308305 -15.610171 5.051211 0.000000 0.000000 0.000000 10.298618 -6.488135 59.838262 -3.540059 1.198808 -30.501849 -6.970170 4.165374 26.351442 17.727597 -3.460926 -43.533434 0.000000 0.000000 0.000000 14.637286 -33.369055 8.297139 -55.440114 -47.046670 15.897321 22.849117 -60.809029 -9.458431 0.000000 0.000000 0.000000 -0.220840 19.255467 7.376207 67.292709 56.354518 29.142050 2.933869 53.866645 5.111380 0.000000 0.000000 0.000000 
-0.292497 0.863038 -0.196121 1.974226 -8.051734 21.761207 22.522702 6.603941 -47.068709 -11.283181 4.252976 28.757589 10.506827 20.351683 22.427102 0.000000 0.000000 0.000000 -18.446442 -0.233290 -58.515552 17.197764 -5.839849 39.335850 -5.778072 -16.760049 5.930161 0.000000 0.000000 0.000000 10.139190 -6.568871 60.148450 -3.740521 1.238621 -31.241633 -7.158437 4.160877 26.549131 17.731150 -3.206922 -44.591993 0.000000 0.000000 0.000000 13.937785 -32.275747 8.234864 -57.227852 -44.708610 15.149218 12.795305 -64.405850 -3.745502 0.000000 0.000000 0.000000 -0.941252 18.554462 7.012678 68.532541 55.315670 29.151210 5.716436 54.502304 6.620304 0.000000 0.000000 0.000000 
-0.313717 0.863395 -0.198405 1.892654 -7.600785 21.481208 23.069736 6.485974 -45.938908 -10.892499 3.875858 27.177343 10.546828 20.384451 23.509581 0.000000 0.000000 0.000000 -17.147143 0.214787 -57.794999 17.200107 -5.753187 38.578671 -5.977995 -17.072894 5.032222 0.000000 0.000000 0.000000 9.860666 -6.527761 60.012517 -3.793055 1.251959 -30.963735 -7.350666 4.296849 26.270902 17.879784 -3.170876 -44.823687 0.000000 0.000000 0.000000 13.108888 -31.708273 8.325364 -58.624441 -41.489710 13.618319 1.077298 -68.031067 3.918551 0.000000 0.000000 0.000000 -0.486279 18.314873 7.010781 68.472892 54.116625 28.256762 8.539654 54.127824 8.013531 0.000000 0.000000 0.000000 
-0.332952 0.861572 -0.200051 1.608393 -6.825523 20.487261 23.637647 6.364614 -45.013902 -10.738799 3.704559 26.761120 10.695621 20.627825 23.858971 0.000000 0.000000 0.000000 -15.551114 0.685625 -57.126690 16.985097 -5.745119 39.082315 -6.350996 -17.801387 5.201956 0.000000 0.000000 0.000000 9.833101 -6.850309 61.039132 -4.085010 1.301805 -31.308095 -7.313072 3.959173 26.405489 17.773677 -3.227620 -44.584332 0.000000 0.000000 0.000000 12.284238 -30.765589 8.252438 -58.815723 -39.034342 12.161674 -14.346360 -70.820960 15.244182 0.000000 0.000000 0.000000 -0.697808 18.273667 6.921960 67.523068 52.711692 26.586018 12.602199 55.193424 10.314213 0.000000 0.000000 0.000000 
-0.349187 0.857567 -0.201069 1.310891 -6.266581 19.488970 24.023872 6.283268 -44.347523 -10.472869 3.607882 27.245130 10.455569 20.394549 23.295919 0.000000 0.000000 0.000000 -14.211232 1.106484 -56.591323 16.992451 -5.854874 39.829831 -6.660247 -18.302164 4.202553 0.000000 0.000000 0.000000 9.638538 -6.959024 61.669281 -4.470306 1.369712 -31.028654 -7.319896 3.975054 26.222516 17.725471 -3.320370 -44.057447 0.000000 0.000000 0.000000 12.395176 -30.253499 8.070902 -59.010239 -37.397194 11.161864 -28.017861 -71.229915 25.396500 0.000000 0.000000 0.000000 -0.879026 17.566600 6.615240 67.352195 52.069835 26.089420 17.345872 55.881873 13.058187 0.000000 0.000000 0.000000 
-0.361532 0.854643 -0.201275 1.160349 -5.781566 18.357348 24.165261 6.028995 -43.201406 -10.469742 3.617405 27.765332 10.175145 20.120133 21.812197 0.000000 0.000000 0.000000 -12.950275 1.496728 -55.658493 16.343897 -5.648086 40.654418 -7.000978 -18.933494 3.703426 0.000000 0.000000 0.000000 9.062378 -6.780715 62.181618 -4.369548 1.366470 -31.242137 -7.276502 4.010758 26.471468 17.440928 -3.214493 -44.269153 0.000000 0.000000 0.000000 11.456674 -29.396804 8.029502 -57.995983 -35.393433 9.574815 -41.867726 -71.150994 35.906774 0.000000 0.000000 0.000000 -0.442248 17.407208 6.593844 65.472130 50.526260 23.895852 23.400310 56.857096 16.785588 0.000000 0.000000 0.000000 
-0.369626 0.855529 -0.199850 1.356898 -4.709722 17.651023 23.170717 5.310999 -42.906970 -10.198674 3.417278 27.921579 9.852141 19.861406 20.602591 0.000000 0.000000 0.000000 -12.646300 1.280139 -54.713480 15.888830 -5.531127 40.241690 -6.887634 -18.528905 3.923258 0.000000 0.000000 0.000000 9.327565 -7.255458 61.345354 -4.731364 1.437646 -30.775881 -7.148549 3.938380 26.715625 17.310707 -3.357729 -43.517381 0.000000 0.000000 0.000000 10.844695 -29.277387 8.101734 -57.391054 -34.543793 8.835996 -46.354192 -70.258917 38.800044 0.000000 0.000000 0.000000 -0.300512 17.066994 6.470836 65.110246 49.532257 22.968722 27.933413 56.910839 19.454484 0.000000 0.000000 0.000000 
-0.373723 0.861347 -0.196600 1.567174 -4.270853 16.837229 21.845627 4.480643 -41.506110 -9.802719 3.163657 27.371856 9.775162 19.815579 19.901063 0.000000 0.000000 0.000000 -12.070586 1.333169 -52.314082 14.871569 -4.914803 38.646502 -7.042870 -18.761835 3.624141 0.000000 0.000000 0.000000 8.966987 -7.064865 60.424727 -4.818245 1.461627 -30.381698 -6.901375 4.150365 27.102968 17.797449 -3.756705 -42.722008 0.000000 0.000000 0.000000 9.188976 -29.436565 8.468995 -55.722280 -33.080452 7.487055 -49.246696 -69.701519 40.551776 0.000000 0.000000 0.000000 0.666717 16.897152 6.532124 62.873426 48.002673 20.732226 32.814991 57.361209 22.575409 0.000000 0.000000 0.000000 
-0.374645 0.870452 -0.191070 1.654157 -3.837299 16.388494 20.363652 3.634195 -39.919087 -9.373029 2.802975 25.565275 9.774496 19.851538 20.063280 0.000000 0.000000 0.000000 -11.932154 1.221228 -49.930260 14.348327 -4.510927 36.466927 -7.068491 -18.766111 4.309401 0.000000 0.000000 0.000000 9.018314 -6.991341 58.333691 -4.942804 1.507205 -29.005022 -6.921531 4.180361 26.934586 18.105446 -4.228804 -41.264243 0.000000 0.000000 0.000000 7.974921 -28.438178 8.433251 -55.139440 -31.793313 6.598404 -52.136858 -68.398503 41.857557 0.000000 0.000000 0.000000 2.222673 16.647839 6.655069 61.284732 46.479802 18.860876 37.249833 56.850203 25.024673 0.000000 0.000000 0.000000 
-0.373152 0.880512 -0.183532 2.059436 -3.848095 15.837817 18.580472 2.733877 -37.434896 -8.983812 2.461103 23.002486 9.981028 20.112504 19.837775 0.000000 0.000000 0.000000 -12.137008 1.075116 -46.974295 13.310677 -3.839807 34.007802 -7.047184 -18.696390 4.943174 0.000000 0.000000 0.000000 8.552162 -6.456851 56.238721 -4.922703 1.518517 -28.242302 -6.619610 4.385657 27.244591 18.656123 -4.875963 -39.751953 0.000000 0.000000 0.000000 6.337582 -28.369321 8.717615 -53.960185 -29.970942 5.330355 -55.018952 -67.048243 43.026666 0.000000 0.000000 0.000000 4.048770 16.301913 6.771868 58.932202 44.243276 16.270496 42.485615 56.829229 28.246946 0.000000 0.000000 0.000000 
-0.370047 0.889234 -0.174393 2.048460 -3.954239 15.435414 17.527361 2.196601 -35.148349 -8.679489 2.194972 20.574726 9.731959 19.732978 20.004533 0.000000 0.000000 0.000000 -11.862824 1.150945 -44.831249 12.110112 -3.185700 32.129298 -6.948808 -18.531723 6.147843 0.000000 0.000000 0.000000 8.628764 -6.294801 54.808566 -5.221032 1.586240 -27.435741 -6.477949 4.351966 26.940742 18.757834 -5.248225 -38.548419 0.000000 0.000000 0.000000 4.707921 -27.768148 8.864875 -52.701564 -28.086668 4.190742 -58.065235 -65.398728 44.084557 0.000000 0.000000 0.000000 5.671810 15.950618 6.836236 57.260921 41.928284 14.106369 46.087795 56.207701 30.081847 0.000000 0.000000 0.000000 
-0.365952 0.895651 -0.164732 2.346391 -4.075781 15.142591 16.126765 1.647448 -33.389349 -8.152785 1.945070 19.137232 9.417334 19.284297 19.878850 0.000000 0.000000 0.000000 -12.093421 1.052183 -42.895338 11.217452 -2.702676 30.078289 -6.665866 -17.944565 6.636992 0.000000 0.000000 0.000000 8.247750 -5.873381 53.232325 -4.931852 1.539111 -26.963652 -6.353169 4.616477 26.919151 19.434378 -5.624698 -38.326347 0.000000 0.000000 0.000000 3.185432 -27.706153 9.137552 -51.980085 -25.889501 3.000908 -57.401578 -63.525839 42.011889 0.000000 0.000000 0.000000 7.419566 15.562056 6.927217 55.591319 39.682213 12.141502 49.099246 55.631836 31.609657 0.000000 0.000000 0.000000 
-0.361762 0.899687 -0.155577 2.297352 -3.802727 14.629017 15.251532 1.261931 -31.816951 -8.013760 1.821250 18.055458 9.431821 19.335757 18.907186 0.000000 0.000000 0.000000 -11.736944 1.079109 -41.264553 10.321566 -2.335143 29.029220 -6.435928 -17.446325 7.180798 0.000000 0.000000 0.000000 8.183243 -5.807854 52.395046 -5.031059 1.572516 -26.592471 -5.869926 4.584577 26.983648 19.905017 -5.982079 -37.926839 0.000000 0.000000 0.000000 1.646886 -27.286598 9.294082 -50.632374 -24.276342 2.083016 -58.517725 -61.426233 41.139246 0.000000 0.000000 0.000000 8.050414 15.098029 6.797707 54.962614 38.125966 11.023700 50.353843 54.948513 31.950069 0.000000 0.000000 0.000000 
-0.357813 0.902161 -0.147573 2.493686 -3.724333 14.180840 14.177726 0.923199 -30.920512 -7.707470 1.729234 18.101626 9.566275 19.540241 18.114197 0.000000 0.000000 0.000000 -11.874759 0.997142 -40.336288 9.942178 -2.168704 28.209313 -6.235765 -16.993438 7.195352 0.000000 0.000000 0.000000 8.067623 -5.663998 51.519712 -4.559902 1.493939 -25.827532 -6.255222 4.738356 26.756732 20.723334 -6.457689 -37.562981 0.000000 0.000000 0.000000 0.786758 -26.846066 9.285114 -50.454169 -22.346385 1.199467 -57.984878 -59.624509 39.283540 0.000000 0.000000 0.000000 9.933284 14.428771 6.763227 54.179358 36.321353 9.748545 52.142941 54.274591 32.648946 0.000000 0.000000 0.000000 
